<svg width="146" height="38" fill="none" xmlns="http://www.w3.org/2000/svg"><path d="M36.532 30.45V4.34h10.354c1.765 0 3.21.356 4.334 1.069 1.136.701 1.976 1.602 2.52 2.702.556 1.1.834 2.236.834 3.409 0 1.438-.344 2.659-1.033 3.662a4.962 4.962 0 01-2.774 2.031v-.906c1.643.374 2.889 1.154 3.735 2.339.858 1.184 1.287 2.532 1.287 4.043 0 1.548-.296 2.901-.888 4.062-.593 1.16-1.475 2.067-2.648 2.72-1.16.653-2.599.979-4.315.979H36.532zm4.425-4.116h6.437c.761 0 1.444-.151 2.049-.453a3.516 3.516 0 001.414-1.306c.35-.568.526-1.239.526-2.013 0-.7-.151-1.33-.453-1.885a3.32 3.32 0 00-1.324-1.324c-.58-.339-1.275-.508-2.085-.508h-6.564v7.489zm0-11.569h5.875c.628 0 1.19-.12 1.686-.362a2.798 2.798 0 001.179-1.07c.29-.472.435-1.052.435-1.74 0-.908-.29-1.663-.87-2.267-.58-.605-1.39-.907-2.43-.907h-5.875v6.346zM68.06 30.994c-1.959 0-3.669-.441-5.132-1.324-1.462-.882-2.599-2.097-3.409-3.644-.797-1.56-1.196-3.349-1.196-5.368 0-2.055.41-3.856 1.233-5.403.822-1.547 1.964-2.756 3.427-3.627 1.462-.87 3.155-1.305 5.077-1.305 1.97 0 3.687.441 5.15 1.323 1.462.883 2.599 2.104 3.408 3.663.81 1.548 1.215 3.33 1.215 5.35 0 2.03-.41 3.825-1.233 5.385-.81 1.547-1.946 2.762-3.409 3.644-1.462.87-3.173 1.306-5.131 1.306zm0-4.098c1.74 0 3.034-.58 3.88-1.74.846-1.161 1.27-2.66 1.27-4.498 0-1.898-.43-3.409-1.288-4.533-.858-1.136-2.146-1.704-3.862-1.704-1.173 0-2.14.266-2.901.798-.75.52-1.306 1.25-1.669 2.194-.362.93-.544 2.012-.544 3.245 0 1.898.43 3.415 1.288 4.552.87 1.124 2.146 1.686 3.826 1.686zm14.13 3.554V3.795h4.37V30.45h-4.37zm17.653.544c-1.801 0-3.373-.453-4.715-1.36-1.341-.907-2.38-2.14-3.118-3.699-.738-1.56-1.106-3.318-1.106-5.277 0-1.982.368-3.747 1.106-5.294.75-1.56 1.807-2.787 3.173-3.681 1.366-.907 2.974-1.36 4.823-1.36 1.862 0 3.421.453 4.678 1.36 1.27.894 2.231 2.121 2.883 3.68.653 1.56.98 3.325.98 5.295 0 1.947-.327 3.705-.98 5.277-.652 1.56-1.625 2.792-2.919 3.699-1.293.907-2.895 1.36-4.805 1.36zm.671-3.917c1.172 0 2.115-.266 2.829-.798.725-.544 1.251-1.299 1.577-2.266.339-.967.508-2.085.508-3.355 0-1.28-.169-2.4-.508-3.354-.326-.967-.84-1.717-1.541-2.248-.701-.544-1.608-.816-2.72-.816-1.173 0-2.14.29-2.901.87-.762.568-1.324 1.342-1.687 2.32-.362.968-.544 2.044-.544 3.228 0 1.197.176 2.285.526 3.264.363.967.913 1.735 1.65 2.303.738.568 1.675.852 2.811.852zm4.914 3.373V16.706h-.544V4.338h4.406V30.45h-3.862zm17.595.544c-1.958 0-3.669-.441-5.131-1.324-1.463-.882-2.599-2.097-3.409-3.644-.798-1.56-1.197-3.349-1.197-5.368 0-2.055.411-3.856 1.233-5.403.822-1.547 1.964-2.756 3.427-3.627 1.463-.87 3.155-1.305 5.077-1.305 1.971 0 3.687.441 5.15 1.323 1.463.883 2.599 2.104 3.409 3.663.81 1.548 1.215 3.33 1.215 5.35 0 2.03-.411 3.825-1.233 5.385-.81 1.547-1.947 2.762-3.409 3.644-1.463.87-3.173 1.306-5.132 1.306zm0-4.098c1.741 0 3.034-.58 3.881-1.74.846-1.161 1.269-2.66 1.269-4.498 0-1.898-.429-3.409-1.288-4.533-.858-1.136-2.145-1.704-3.862-1.704-1.172 0-2.139.266-2.901.798-.749.52-1.306 1.25-1.668 2.194-.363.93-.544 2.012-.544 3.245 0 1.898.429 3.415 1.287 4.552.871 1.124 2.146 1.686 3.826 1.686zM.765 16.45h14.317a8.842 8.842 0 010 17.684H.765V16.45zm0-15.474h9.48a6.632 6.632 0 010 13.263H.764V.976z" fill="#fff"/></svg>