<svg width="112" height="37" fill="none" xmlns="http://www.w3.org/2000/svg"><g clip-path="url(#clip0_63_664)" fill="#fff"><g clip-path="url(#clip1_63_664)"><path d="M9.825 2.693a.619.619 0 01.265-.834 14.969 14.969 0 0114.225.354.618.618 0 01.225.848L17.42 15.28a.617.617 0 01-.535.308h-.015a.622.622 0 01-.535-.334L9.825 2.693zm6.677 16.155L9.993 6.284a.62.62 0 00-.833-.266 14.806 14.806 0 1013.62 26.294.62.62 0 00.264-.834l-6.542-12.63zm7.63 11.874l.05.099a.63.63 0 00.36.31c.063.02.13.03.197.024a.787.787 0 00.285-.062c.226-.111.445-.235.657-.371.63-.366 1.23-.78 1.796-1.239h-3.989l.644 1.239zm-1.288-2.477h5.983c.384-.387.74-.8 1.065-1.239H22.2l.644 1.239zm-1.276-2.478h9.204c.253-.397.48-.811.68-1.238H20.925l.645 1.238zM20.28 23.29h11.718c.164-.404.305-.818.42-1.239H19.637l.644 1.24zm-1.288-2.477H32.73c.074-.409.136-.818.173-1.239H18.36l.632 1.239zm6.64-15.657a.575.575 0 00-.472-.062.595.595 0 00-.384.285l-.334.57h2.39c-.385-.285-.786-.55-1.2-.793zm2.7 2.032h-4.608l-.719 1.238h6.503c-.366-.436-.76-.85-1.177-1.238zm2.105 2.477h-8.163l-.718 1.239h9.637a10.67 10.67 0 00-.756-1.239zm1.35 2.477h-10.95l-.718 1.239H32.27a11.64 11.64 0 00-.483-1.239zm.83 2.478H19.388l-.718 1.238h14.17c-.05-.417-.123-.83-.223-1.238zm.347 2.477H17.952l-.298.508a.6.6 0 00-.012.594l.074.136H32.99c.012-.123.012-.26.012-.384 0-.284-.012-.57-.037-.854z"/><path d="M9.54 5.407a.844.844 0 00-1.178-.346 15.708 15.708 0 0014.64 27.74.844.844 0 00.379-1.168L16.46 18.52 9.54 5.407z"/></g><path d="M55.101 6.487c2.55 0 4.538.616 5.962 1.849 1.445 1.211 2.167 2.933 2.167 5.164 0 2.232-.722 3.964-2.167 5.197-1.424 1.21-3.411 1.817-5.962 1.817h-4.176v7.013h-5.483V6.487h9.66zm-.86 9.914c2.316 0 3.474-.967 3.474-2.9 0-1.935-1.158-2.902-3.474-2.902h-3.316v5.802h3.316zm12.112 11.126v-15.94h4.782l.224 3.443c.382-1.168.967-2.082 1.753-2.741.807-.68 1.838-1.02 3.092-1.02.404 0 .744.042 1.02.127.298.064.531.138.701.223l-.541 4.463a8.325 8.325 0 00-.83-.19 6.146 6.146 0 00-1.179-.096c-.977 0-1.828.308-2.55.924-.701.616-1.052 1.54-1.052 2.773v8.034h-5.42zm21.29.319c-2.656 0-4.76-.723-6.312-2.168-1.53-1.445-2.295-3.486-2.295-6.12 0-1.744.35-3.231 1.052-4.464.722-1.254 1.7-2.2 2.933-2.837 1.254-.659 2.71-.988 4.367-.988 1.679 0 3.103.33 4.272.988 1.19.638 2.093 1.53 2.71 2.678.616 1.126.924 2.423.924 3.889 0 .404-.021.797-.064 1.18-.021.36-.042.669-.064.924h-10.87c.148 1.105.51 1.902 1.084 2.39.574.468 1.328.702 2.263.702.808 0 1.445-.16 1.913-.478.489-.319.85-.765 1.084-1.339l4.335 1.435a5.09 5.09 0 01-1.562 2.327c-.722.616-1.594 1.084-2.614 1.402-.999.32-2.05.479-3.156.479zm-.255-12.784c-1.721 0-2.742.989-3.06 2.965h5.834c-.234-1.977-1.159-2.965-2.774-2.965zm17.632 12.784c-1.594 0-3.071-.255-4.431-.765-1.36-.532-2.497-1.286-3.411-2.264l2.55-2.996c.532.68 1.233 1.253 2.104 1.721.893.446 1.881.67 2.965.67.659 0 1.201-.096 1.626-.287.425-.192.637-.49.637-.893a.91.91 0 00-.318-.701c-.213-.192-.638-.351-1.275-.479l-2.232-.446c-1.998-.404-3.422-.999-4.272-1.785-.829-.808-1.243-1.86-1.243-3.156 0-.871.266-1.7.797-2.487.531-.786 1.35-1.434 2.455-1.944s2.518-.765 4.239-.765c3.295 0 5.696.914 7.205 2.741l-2.582 2.933c-.51-.637-1.169-1.137-1.977-1.498-.807-.361-1.615-.542-2.422-.542-1.552 0-2.328.393-2.328 1.18 0 .276.128.52.383.733.276.212.776.382 1.498.51l2.901.573c1.637.32 2.816.872 3.539 1.658.722.765 1.084 1.7 1.084 2.806 0 1.551-.627 2.858-1.881 3.92-1.233 1.042-3.103 1.563-5.611 1.563zm21.716-16.259v3.858h-4.75v6.407c0 .766.181 1.318.542 1.658.383.319.903.478 1.562.478.51 0 .946-.053 1.307-.16a3.904 3.904 0 001.02-.541l.574 3.347c-.531.362-1.211.66-2.04.893a9.611 9.611 0 01-2.455.319c-1.827 0-3.273-.383-4.335-1.148-1.042-.786-1.573-2.104-1.594-3.953v-7.3h-2.742v-3.857h2.742v-3.57l5.419-1.5v5.07h4.75zm10.091-.318c1.678 0 3.145.33 4.399.988a7.076 7.076 0 012.965 2.837c.722 1.233 1.083 2.72 1.083 4.463 0 1.743-.361 3.23-1.083 4.463a7.076 7.076 0 01-2.965 2.837c-1.254.66-2.721.989-4.399.989-1.658 0-3.125-.33-4.4-.989a7.319 7.319 0 01-2.964-2.837c-.702-1.232-1.052-2.72-1.052-4.463 0-1.742.35-3.23 1.052-4.463a7.319 7.319 0 012.964-2.837c1.275-.659 2.742-.988 4.4-.988zm0 3.857c-.936 0-1.669.35-2.2 1.052-.51.68-.765 1.806-.765 3.38 0 1.55.255 2.677.765 3.378.531.702 1.264 1.052 2.2 1.052.956 0 1.689-.35 2.199-1.052.531-.701.797-1.827.797-3.379 0-1.572-.266-2.699-.797-3.379-.51-.701-1.243-1.052-2.199-1.052z"/></g><defs><clipPath id="clip0_63_664"><path fill="#fff" transform="translate(.665 -4.473)" d="M0 0h146.513v41.29H0z"/></clipPath><clipPath id="clip1_63_664"><path fill="#fff" transform="translate(.474 -.32)" d="M0 0h32.745v34.835H0z"/></clipPath></defs></svg>