<svg width="148" height="37" fill="none" xmlns="http://www.w3.org/2000/svg"><g clip-path="url(#clip0_63_648)" fill="#fff"><g clip-path="url(#clip1_63_648)"><path d="M10.082 2.693a.62.62 0 01.265-.834 14.969 14.969 0 0114.225.354.616.616 0 01.225.848l-7.12 12.22a.616.616 0 01-.535.308h-.016a.622.622 0 01-.535-.334L10.082 2.693zm6.678 16.155L10.25 6.284a.62.62 0 00-.833-.266 14.806 14.806 0 1013.62 26.294.62.62 0 00.264-.834L16.76 18.85zm7.63 11.874l.05.099a.63.63 0 00.358.31c.064.02.132.03.199.024a.787.787 0 00.285-.062 6.86 6.86 0 00.656-.371c.63-.366 1.23-.78 1.796-1.239h-3.988l.644 1.239zm-1.288-2.477h5.982c.385-.387.74-.8 1.065-1.239h-7.692l.645 1.239zm-1.276-2.478h9.203c.253-.397.481-.811.681-1.238H21.182l.644 1.238zm-1.288-2.477h11.717c.164-.404.305-.818.421-1.239H19.893l.645 1.24zm-1.289-2.477h13.737c.074-.409.136-.818.173-1.239H18.618l.631 1.239zm6.64-15.657a.575.575 0 00-.471-.062.594.594 0 00-.384.285l-.335.57h2.39c-.385-.285-.786-.55-1.2-.793zm2.7 2.032H23.98l-.719 1.238h6.503c-.366-.436-.76-.85-1.176-1.238zm2.105 2.477h-8.162l-.719 1.239h9.637c-.224-.43-.476-.844-.756-1.239zm1.35 2.477h-10.95l-.718 1.239h12.152a11.639 11.639 0 00-.483-1.239zm.83 2.478H19.646l-.719 1.238h14.17c-.049-.417-.123-.83-.223-1.238zm.347 2.477H18.21l-.297.508a.597.597 0 00-.013.594l.075.136h15.272c.012-.123.012-.26.012-.384 0-.284-.012-.57-.037-.854z"/><path d="M9.798 5.407a.844.844 0 00-1.178-.346A15.708 15.708 0 0023.26 32.8a.844.844 0 00.378-1.168l-6.92-13.113-6.92-13.113z"/></g><path d="M55.359 6.487c2.55 0 4.537.616 5.96 1.849 1.446 1.211 2.169 2.933 2.169 5.164 0 2.232-.723 3.964-2.168 5.197-1.424 1.21-3.411 1.817-5.961 1.817h-4.177v7.013H45.7V6.487h9.66zm-.861 9.914c2.316 0 3.475-.967 3.475-2.9 0-1.935-1.159-2.902-3.475-2.902h-3.316v5.802h3.316zM66.61 27.527v-15.94h4.782l.223 3.443c.382-1.168.967-2.082 1.753-2.741.808-.68 1.838-1.02 3.092-1.02.404 0 .744.042 1.02.127.298.064.532.138.702.223l-.542 4.463a8.315 8.315 0 00-.829-.19 6.146 6.146 0 00-1.18-.096c-.977 0-1.827.308-2.55.924-.701.616-1.052 1.54-1.052 2.773v8.034h-5.42zm21.29.319c-2.657 0-4.761-.723-6.313-2.168-1.53-1.445-2.295-3.486-2.295-6.12 0-1.744.35-3.231 1.052-4.464.723-1.254 1.7-2.2 2.933-2.837 1.254-.659 2.71-.988 4.367-.988 1.68 0 3.103.33 4.272.988 1.19.638 2.093 1.53 2.71 2.678.616 1.126.924 2.423.924 3.889 0 .404-.021.797-.064 1.18-.02.36-.042.669-.063.924h-10.87c.149 1.105.51 1.902 1.084 2.39.574.468 1.328.702 2.263.702.808 0 1.445-.16 1.913-.478.489-.319.85-.765 1.084-1.339l4.335 1.435a5.09 5.09 0 01-1.562 2.327c-.722.616-1.594 1.084-2.614 1.402-.999.32-2.05.479-3.156.479zm-.256-12.784c-1.721 0-2.741.989-3.06 2.965h5.834c-.234-1.977-1.159-2.965-2.774-2.965zm17.632 12.784c-1.593 0-3.071-.255-4.431-.765-1.36-.532-2.497-1.286-3.41-2.264l2.55-2.996c.531.68 1.232 1.253 2.104 1.721.892.446 1.88.67 2.964.67.659 0 1.201-.096 1.626-.287.425-.192.638-.49.638-.893a.91.91 0 00-.319-.701c-.213-.192-.638-.351-1.275-.479l-2.232-.446c-1.997-.404-3.421-.999-4.272-1.785-.828-.808-1.243-1.86-1.243-3.156 0-.871.266-1.7.797-2.487.531-.786 1.35-1.434 2.455-1.944s2.518-.765 4.24-.765c3.294 0 5.695.914 7.204 2.741l-2.582 2.933c-.51-.637-1.169-1.137-1.976-1.498-.808-.361-1.616-.542-2.423-.542-1.552 0-2.327.393-2.327 1.18 0 .276.127.52.382.733.277.212.776.382 1.499.51l2.901.573c1.636.32 2.816.872 3.538 1.658.723.765 1.084 1.7 1.084 2.806 0 1.551-.627 2.858-1.881 3.92-1.233 1.042-3.103 1.563-5.611 1.563zm21.716-16.259v3.858h-4.75v6.407c0 .766.181 1.318.542 1.658.383.319.904.478 1.562.478.511 0 .946-.053 1.307-.16a3.926 3.926 0 001.021-.541l.573 3.347c-.531.362-1.211.66-2.04.893a9.604 9.604 0 01-2.454.319c-1.828 0-3.273-.383-4.336-1.148-1.041-.786-1.573-2.104-1.594-3.953v-7.3h-2.742v-3.857h2.742v-3.57l5.419-1.5v5.07h4.75zm10.091-.318c1.679 0 3.145.33 4.399.988a7.076 7.076 0 012.965 2.837c.722 1.233 1.084 2.72 1.084 4.463 0 1.743-.362 3.23-1.084 4.463a7.076 7.076 0 01-2.965 2.837c-1.254.66-2.72.989-4.399.989-1.658 0-3.124-.33-4.399-.989a7.321 7.321 0 01-2.965-2.837c-.702-1.232-1.052-2.72-1.052-4.463 0-1.742.35-3.23 1.052-4.463a7.321 7.321 0 012.965-2.837c1.275-.659 2.741-.988 4.399-.988zm0 3.857c-.935 0-1.669.35-2.2 1.052-.51.68-.765 1.806-.765 3.38 0 1.55.255 2.677.765 3.378.531.702 1.265 1.052 2.2 1.052.956 0 1.689-.35 2.199-1.052.532-.701.797-1.827.797-3.379 0-1.572-.265-2.699-.797-3.379-.51-.701-1.243-1.052-2.199-1.052z"/></g><defs><clipPath id="clip0_63_648"><path fill="#fff" transform="translate(.922 -4.473)" d="M0 0h146.513v41.29H0z"/></clipPath><clipPath id="clip1_63_648"><path fill="#fff" transform="translate(.731 -.32)" d="M0 0h32.745v34.835H0z"/></clipPath></defs></svg>