<svg width="94" height="94" fill="none" xmlns="http://www.w3.org/2000/svg"><g clip-path="url(#clip0_64_920)"><path d="M86.686 47.295c0 22.051-17.832 39.902-39.798 39.902S7.09 69.346 7.09 47.295c0-22.052 17.832-39.902 39.798-39.902s39.798 17.85 39.798 39.902z" stroke="#0A2640" stroke-width="13.393"/><mask id="a" style="mask-type:alpha" maskUnits="userSpaceOnUse" x="-28" y="-17" width="74" height="122"><path d="M45.405 42.998L27.269-16.16l-54.904 69.732 29.183 50.895 43.857-61.47z" fill="#C4C4C4"/></mask><g mask="url(#a)"><path d="M86.687 47.294c0 22.051-17.832 39.902-39.798 39.902S7.091 69.346 7.091 47.294c0-22.051 17.832-39.902 39.798-39.902s39.798 17.85 39.798 39.902z" stroke="#0DBBFC" stroke-width="13.393"/></g><mask id="b" style="mask-type:alpha" maskUnits="userSpaceOnUse" x="21" y="-22" width="91" height="85"><path d="M51.544 48.182l59.996 14.69-31.705-82.959-58.563-.953 30.272 69.222z" fill="#C4C4C4"/></mask><g mask="url(#b)"><path d="M26.489 81.535C7.597 70.249 1.396 45.763 12.643 26.84 23.889 7.921 48.32 1.732 67.213 13.018 86.107 24.303 92.307 48.79 81.06 67.71 69.814 86.63 45.38 92.82 26.489 81.535z" stroke="#69E6A6" stroke-width="13.393"/></g></g><defs><clipPath id="clip0_64_920"><path fill="#fff" transform="translate(.305 .773)" d="M0 0h93.038v93.038H0z"/></clipPath></defs></svg>