<svg width="174" height="175" fill="none" xmlns="http://www.w3.org/2000/svg"><g clip-path="url(#clip0_7805_451)"><path d="M161.328 87.53c0 41.114-33.249 74.397-74.204 74.397-40.956 0-74.205-33.283-74.205-74.397 0-41.115 33.249-74.398 74.205-74.398 40.955 0 74.204 33.283 74.204 74.397z" stroke="#0A2640" stroke-width="24.971"/><mask id="a" style="mask-type:alpha" maskUnits="userSpaceOnUse" x="-52" y="-31" width="137" height="226"><path d="M84.357 79.519L50.542-30.78-51.826 99.237l54.412 94.894L84.357 79.519z" fill="#C4C4C4"/></mask><g mask="url(#a)"><path d="M161.328 87.53c0 41.114-33.248 74.397-74.204 74.397-40.956 0-74.204-33.283-74.204-74.398 0-41.115 33.248-74.397 74.204-74.397 40.956 0 74.204 33.282 74.204 74.397z" stroke="#0DBBFC" stroke-width="24.971"/></g><mask id="b" style="mask-type:alpha" maskUnits="userSpaceOnUse" x="39" y="-40" width="169" height="157"><path d="M95.803 89.184l111.865 27.391-59.116-154.678-109.19-1.778L95.803 89.184z" fill="#C4C4C4"/></mask><g mask="url(#b)"><path d="M49.088 151.371C13.863 130.33 2.303 84.674 23.27 49.396 44.242 14.117 89.796 2.58 125.02 23.62c35.224 21.042 46.785 66.697 25.816 101.976-20.969 35.278-66.524 46.816-101.748 25.774z" stroke="#69E6A6" stroke-width="24.971"/></g></g><defs><clipPath id="clip0_7805_451"><path fill="#fff" transform="translate(.268 .79)" d="M0 0h173.469v173.469H0z"/></clipPath></defs></svg>